{"glyphs":{"0":{"ha":2018,"x_min":13,"x_max":1878,"o":"m 1878 -3 l 13 -3 l 13 1863 l 1878 1863 l 1878 -3 m 1751 121 l 1751 1739 l 139 1739 l 139 121 l 1751 121 m 1231 963 q 1197 725 1231 833 q 1068 529 1154 590 q 929 478 996 478 q 710 633 797 478 q 636 949 636 764 q 810 1388 636 1264 q 936 1432 872 1432 q 1125 1324 1040 1432 q 1231 963 1231 1189 m 1097 993 q 935 1388 1097 1388 q 788 1169 819 1388 q 769 932 769 1044 q 817 622 769 746 q 931 521 856 521 q 1021 569 982 521 q 1067 664 1051 607 q 1097 993 1097 779 z "},"1":{"ha":2018,"x_min":13,"x_max":1878,"o":"m 1878 -3 l 13 -3 l 13 1863 l 1878 1863 l 1878 -3 m 1751 121 l 1751 1739 l 139 1739 l 139 121 l 1751 121 m 1100 464 l 753 464 l 753 489 q 815 493 799 490 q 864 526 853 501 q 871 626 871 542 l 871 1124 q 864 1253 871 1221 q 817 1294 854 1294 q 746 1274 792 1294 l 736 1294 l 961 1403 l 983 1403 l 983 626 q 990 531 983 549 q 1100 489 1001 492 l 1100 464 z "},"2":{"ha":2018,"x_min":13,"x_max":1878,"o":"m 1878 -3 l 13 -3 l 13 1863 l 1878 1863 l 1878 -3 m 1751 121 l 1751 1739 l 139 1739 l 139 121 l 1751 121 m 1219 654 l 1156 475 l 613 475 l 613 500 q 885 772 801 672 q 1047 1110 1047 967 q 997 1251 1047 1193 q 865 1310 947 1310 q 664 1156 717 1310 l 639 1156 q 718 1340 654 1271 q 901 1414 789 1414 q 1083 1347 1007 1414 q 1164 1172 1164 1276 q 968 800 1164 1014 q 760 579 796 611 l 997 579 q 1153 607 1114 579 q 1193 654 1175 622 l 1219 654 z "},"3":{"ha":2018,"x_min":13,"x_max":1878,"o":"m 1878 -3 l 13 -3 l 13 1863 l 1878 1863 l 1878 -3 m 1751 121 l 1751 1739 l 139 1739 l 139 121 l 1751 121 m 1174 775 q 1097 568 1174 656 q 810 454 999 454 q 650 526 650 454 q 667 562 650 547 q 704 576 683 576 q 738 571 719 576 q 792 545 757 565 q 847 519 828 525 q 901 513 874 513 q 1023 567 972 513 q 1074 693 1074 621 q 1056 782 1074 735 q 1011 856 1039 829 q 826 926 933 926 l 806 926 l 806 947 q 913 986 858 954 q 992 1062 968 1018 q 1015 1161 1015 1106 q 973 1273 1015 1229 q 863 1317 931 1317 q 686 1203 757 1317 l 664 1214 q 913 1408 746 1408 q 1083 1336 1024 1408 q 1128 1222 1128 1283 q 1001 1015 1128 1122 q 1174 775 1174 947 z "},"4":{"ha":2018,"x_min":13,"x_max":1878,"o":"m 1878 -3 l 13 -3 l 13 1863 l 1878 1863 l 1878 -3 m 1751 121 l 1751 1739 l 139 1739 l 139 121 l 1751 121 m 1174 699 l 1050 699 l 1050 456 l 938 456 l 938 699 l 550 699 l 550 785 l 975 1394 l 1050 1394 l 1050 794 l 1174 794 l 1174 699 m 938 794 l 938 1251 l 617 794 l 938 794 z "},"5":{"ha":2018,"x_min":13,"x_max":1878,"o":"m 1878 -3 l 13 -3 l 13 1863 l 1878 1863 l 1878 -3 m 1751 121 l 1751 1739 l 139 1739 l 139 121 l 1751 121 m 1153 1404 l 1100 1289 l 822 1289 l 761 1165 q 1019 1058 915 1143 q 1138 815 1138 961 q 1035 575 1138 674 q 775 468 922 468 q 676 485 718 468 q 617 557 617 508 q 671 606 617 606 q 749 572 699 606 q 850 538 799 538 q 992 599 933 538 q 1050 744 1050 661 q 990 908 1050 835 q 849 1013 938 975 q 647 1047 776 1043 l 824 1404 l 1153 1404 z "},"6":{"ha":2018,"x_min":13,"x_max":1878,"o":"m 1878 -3 l 13 -3 l 13 1863 l 1878 1863 l 1878 -3 m 1751 121 l 1751 1739 l 139 1739 l 139 121 l 1751 121 m 1175 783 q 1106 574 1175 668 q 883 458 1021 458 q 724 521 790 458 q 594 835 594 643 q 785 1267 594 1088 q 1118 1413 940 1413 l 1157 1413 l 1157 1386 q 1015 1353 1071 1378 q 900 1269 960 1328 q 747 988 796 1165 q 943 1054 844 1054 q 1115 969 1050 1054 q 1175 783 1175 893 m 1054 710 q 1018 893 1054 815 q 878 996 971 996 q 736 938 828 996 q 724 790 724 847 q 749 650 724 721 q 819 528 775 569 q 903 496 853 496 q 1019 568 978 496 q 1054 710 1054 629 z "},"7":{"ha":2018,"x_min":13,"x_max":1878,"o":"m 1878 -3 l 13 -3 l 13 1863 l 1878 1863 l 1878 -3 m 1751 121 l 1751 1739 l 139 1739 l 139 121 l 1751 121 m 1211 1360 l 906 446 l 829 446 l 1104 1275 l 851 1275 q 742 1257 774 1275 q 650 1160 685 1225 l 631 1168 l 718 1386 l 1211 1386 l 1211 1360 z "},"8":{"ha":2018,"x_min":13,"x_max":1878,"o":"m 1878 -3 l 13 -3 l 13 1863 l 1878 1863 l 1878 -3 m 1751 121 l 1751 1739 l 139 1739 l 139 121 l 1751 121 m 1151 707 q 1069 533 1151 600 q 883 472 993 472 q 678 554 751 472 q 619 697 619 619 q 803 951 619 821 q 685 1061 718 1019 q 629 1207 629 1131 q 707 1369 629 1308 q 883 1426 779 1426 q 1050 1376 978 1426 q 1131 1229 1131 1321 q 1067 1092 1131 1157 q 942 997 1028 1051 q 1100 853 1061 906 q 1151 707 1151 783 m 1035 1236 q 995 1348 1035 1307 q 885 1389 956 1389 q 778 1353 824 1389 q 728 1254 728 1314 q 746 1185 728 1219 q 797 1117 768 1140 l 910 1024 q 999 1117 976 1083 q 1035 1236 1035 1168 m 1056 651 q 1029 738 1056 699 q 835 925 979 811 q 724 701 724 833 q 800 538 724 592 q 893 510 840 510 q 1008 548 960 510 q 1056 651 1056 586 z "},"9":{"ha":2018,"x_min":13,"x_max":1878,"o":"m 1878 -3 l 13 -3 l 13 1863 l 1878 1863 l 1878 -3 m 1751 121 l 1751 1739 l 139 1739 l 139 121 l 1751 121 m 1236 1032 q 1160 745 1236 876 q 951 526 1085 614 q 714 454 842 454 l 675 454 l 675 479 q 985 660 858 482 q 1083 878 1056 760 q 892 810 978 810 q 718 894 783 810 q 657 1083 657 972 q 726 1299 657 1204 q 943 1413 810 1413 q 1138 1319 1058 1413 q 1236 1032 1236 1204 m 1107 1068 q 1086 1206 1107 1136 q 1022 1328 1063 1288 q 929 1368 982 1368 q 811 1296 853 1368 q 778 1153 778 1236 q 838 929 778 1008 q 946 871 881 871 q 1094 928 1029 871 q 1107 1068 1107 1015 z "}," ":{"ha":694,"x_min":0,"x_max":0,"o":""},"!":{"ha":511,"x_min":0,"x_max":0,"o":""},"\"":{"ha":933,"x_min":0,"x_max":0,"o":""},"#":{"ha":590,"x_min":0,"x_max":0,"o":""},"$":{"ha":778,"x_min":0,"x_max":0,"o":""},"%":{"ha":1933,"x_min":0,"x_max":0,"o":""},"&":{"ha":711,"x_min":0,"x_max":0,"o":""},"'":{"ha":556,"x_min":0,"x_max":0,"o":""},"(":{"ha":533,"x_min":0,"x_max":0,"o":""},")":{"ha":556,"x_min":0,"x_max":0,"o":""},"*":{"ha":689,"x_min":0,"x_max":0,"o":""},"+":{"ha":711,"x_min":0,"x_max":0,"o":""},",":{"ha":444,"x_min":0,"x_max":0,"o":""},"-":{"ha":711,"x_min":0,"x_max":0,"o":""},"‐":{"ha":711,"x_min":0,"x_max":0,"o":""},".":{"ha":321,"x_min":93,"x_max":211,"o":"m 93 50 q 110 93 93 75 q 151 111 128 111 q 194 93 176 111 q 211 50 211 75 q 194 8 211 25 q 151 -10 176 -10 q 110 8 128 -10 q 93 50 93 25 z "},"/":{"ha":800,"x_min":0,"x_max":0,"o":""},":":{"ha":2018,"x_min":13,"x_max":1878,"o":"m 1878 -3 l 13 -3 l 13 1863 l 1878 1863 l 1878 -3 m 1751 121 l 1751 1739 l 139 1739 l 139 121 l 1751 121 z "},";":{"ha":2018,"x_min":13,"x_max":1878,"o":"m 1878 -3 l 13 -3 l 13 1863 l 1878 1863 l 1878 -3 m 1751 121 l 1751 1739 l 139 1739 l 139 121 l 1751 121 z "},"<":{"ha":711,"x_min":0,"x_max":0,"o":""},"=":{"ha":711,"x_min":0,"x_max":0,"o":""},">":{"ha":711,"x_min":0,"x_max":0,"o":""},"?":{"ha":956,"x_min":0,"x_max":0,"o":""},"@":{"ha":2018,"x_min":13,"x_max":1878,"o":"m 1878 -3 l 13 -3 l 13 1863 l 1878 1863 l 1878 -3 m 1751 121 l 1751 1739 l 139 1739 l 139 121 l 1751 121 m 1478 707 q 1396 533 1478 600 q 1210 472 1319 472 q 1004 554 1078 472 q 946 697 946 619 q 1129 951 946 821 q 1011 1061 1044 1019 q 956 1207 956 1131 q 1033 1369 956 1308 q 1210 1426 1106 1426 q 1376 1376 1304 1426 q 1457 1229 1457 1321 q 1393 1092 1457 1157 q 1268 997 1354 1051 q 1426 853 1388 906 q 1478 707 1478 783 m 754 464 l 407 464 l 407 489 q 469 493 453 490 q 518 526 507 501 q 525 626 525 542 l 525 1124 q 518 1253 525 1221 q 471 1294 508 1294 q 400 1274 446 1294 l 390 1294 l 615 1403 l 638 1403 l 638 626 q 644 531 638 549 q 754 489 656 492 l 754 464 m 1361 1236 q 1322 1348 1361 1307 q 1211 1389 1282 1389 q 1104 1353 1150 1389 q 1054 1254 1054 1314 q 1072 1185 1054 1219 q 1124 1117 1094 1140 l 1236 1024 q 1325 1117 1303 1083 q 1361 1236 1361 1168 m 1382 651 q 1356 738 1382 699 q 1161 925 1306 811 q 1050 701 1050 833 q 1126 538 1050 592 q 1219 510 1167 510 q 1334 548 1286 510 q 1382 651 1382 586 z "},"A":{"ha":2018,"x_min":13,"x_max":1878,"o":"m 1878 -3 l 13 -3 l 13 1863 l 1878 1863 l 1878 -3 m 1751 121 l 1751 1739 l 139 1739 l 139 121 l 1751 121 m 1485 953 q 1451 715 1485 824 q 1322 519 1408 581 q 1183 468 1250 468 q 964 624 1051 468 q 890 939 890 754 q 1064 1378 890 1254 q 1190 1422 1126 1422 q 1379 1314 1294 1422 q 1485 953 1485 1179 m 754 464 l 407 464 l 407 489 q 469 493 453 490 q 518 526 507 501 q 525 626 525 542 l 525 1124 q 518 1253 525 1221 q 471 1294 508 1294 q 400 1274 446 1294 l 390 1294 l 615 1403 l 638 1403 l 638 626 q 644 531 638 549 q 754 489 656 492 l 754 464 m 1351 983 q 1189 1378 1351 1378 q 1042 1160 1074 1378 q 1024 922 1024 1035 q 1071 613 1024 736 q 1185 511 1110 511 q 1275 560 1236 511 q 1321 654 1306 597 q 1351 983 1351 769 z "},"B":{"ha":2018,"x_min":13,"x_max":1878,"o":"m 1878 -3 l 13 -3 l 13 1863 l 1878 1863 l 1878 -3 m 1751 121 l 1751 1739 l 139 1739 l 139 121 l 1751 121 m 1386 464 l 1039 464 l 1039 489 q 1101 493 1085 490 q 1150 526 1139 501 q 1157 626 1157 542 l 1157 1124 q 1150 1253 1157 1221 q 1103 1294 1140 1294 q 1032 1274 1078 1294 l 1022 1294 l 1247 1403 l 1269 1403 l 1269 626 q 1276 531 1269 549 q 1386 489 1288 492 l 1386 464 m 754 464 l 407 464 l 407 489 q 469 493 453 490 q 518 526 507 501 q 525 626 525 542 l 525 1124 q 518 1253 525 1221 q 471 1294 508 1294 q 400 1274 446 1294 l 390 1294 l 615 1403 l 638 1403 l 638 626 q 644 531 638 549 q 754 489 656 492 l 754 464 z "},"C":{"ha":2018,"x_min":13,"x_max":1878,"o":"m 1878 -3 l 13 -3 l 13 1863 l 1878 1863 l 1878 -3 m 1751 121 l 1751 1739 l 139 1739 l 139 121 l 1751 121 m 1524 642 l 1460 463 l 917 463 l 917 488 q 1189 760 1106 660 q 1351 1097 1351 954 q 1301 1239 1351 1181 q 1169 1297 1251 1297 q 968 1143 1021 1297 l 943 1143 q 1022 1328 958 1258 q 1206 1401 1093 1401 q 1388 1335 1311 1401 q 1468 1160 1468 1264 q 1272 788 1468 1001 q 1064 567 1100 599 l 1301 567 q 1457 594 1418 567 q 1497 642 1479 610 l 1524 642 m 754 464 l 407 464 l 407 489 q 469 493 453 490 q 518 526 507 501 q 525 626 525 542 l 525 1124 q 518 1253 525 1221 q 471 1294 508 1294 q 400 1274 446 1294 l 390 1294 l 615 1403 l 638 1403 l 638 626 q 644 531 638 549 q 754 489 656 492 l 754 464 z "},"D":{"ha":2018,"x_min":13,"x_max":1878,"o":"m 1878 -3 l 13 -3 l 13 1863 l 1878 1863 l 1878 -3 m 1751 121 l 1751 1739 l 139 1739 l 139 121 l 1751 121 m 1464 775 q 1388 568 1464 656 q 1100 454 1289 454 q 940 526 940 454 q 957 562 940 547 q 994 576 974 576 q 1028 571 1010 576 q 1083 545 1047 565 q 1138 519 1118 525 q 1192 513 1164 513 q 1313 567 1263 513 q 1364 693 1364 621 q 1347 782 1364 735 q 1301 856 1329 829 q 1117 926 1224 926 l 1096 926 l 1096 947 q 1203 986 1149 954 q 1282 1062 1258 1018 q 1306 1161 1306 1106 q 1263 1273 1306 1229 q 1153 1317 1221 1317 q 976 1203 1047 1317 l 954 1214 q 1203 1408 1036 1408 q 1374 1336 1314 1408 q 1418 1222 1418 1283 q 1292 1015 1418 1122 q 1464 775 1464 947 m 754 464 l 407 464 l 407 489 q 469 493 453 490 q 518 526 507 501 q 525 626 525 542 l 525 1124 q 518 1253 525 1221 q 471 1294 508 1294 q 400 1274 446 1294 l 390 1294 l 615 1403 l 638 1403 l 638 626 q 644 531 638 549 q 754 489 656 492 l 754 464 z "},"E":{"ha":2018,"x_min":13,"x_max":1878,"o":"m 1878 -3 l 13 -3 l 13 1863 l 1878 1863 l 1878 -3 m 1751 121 l 1751 1739 l 139 1739 l 139 121 l 1751 121 m 1503 722 l 1379 722 l 1379 479 l 1267 479 l 1267 722 l 879 722 l 879 808 l 1304 1418 l 1379 1418 l 1379 818 l 1503 818 l 1503 722 m 754 464 l 407 464 l 407 489 q 469 493 453 490 q 518 526 507 501 q 525 626 525 542 l 525 1124 q 518 1253 525 1221 q 471 1294 508 1294 q 400 1274 446 1294 l 390 1294 l 615 1403 l 638 1403 l 638 626 q 644 531 638 549 q 754 489 656 492 l 754 464 m 1267 818 l 1267 1275 l 946 818 l 1267 818 z "},"F":{"ha":2018,"x_min":13,"x_max":1878,"o":"m 1878 -3 l 13 -3 l 13 1863 l 1878 1863 l 1878 -3 m 1751 121 l 1751 1739 l 139 1739 l 139 121 l 1751 121 m 1461 1404 l 1408 1289 l 1131 1289 l 1069 1165 q 1328 1058 1224 1143 q 1446 815 1446 961 q 1343 575 1446 674 q 1083 468 1231 468 q 985 485 1026 468 q 925 557 925 508 q 979 606 925 606 q 1057 572 1007 606 q 1158 538 1107 538 q 1300 599 1242 538 q 1358 744 1358 661 q 1299 908 1358 835 q 1157 1013 1246 975 q 956 1047 1085 1043 l 1132 1404 l 1461 1404 m 754 464 l 407 464 l 407 489 q 469 493 453 490 q 518 526 507 501 q 525 626 525 542 l 525 1124 q 518 1253 525 1221 q 471 1294 508 1294 q 400 1274 446 1294 l 390 1294 l 615 1403 l 638 1403 l 638 626 q 644 531 638 549 q 754 489 656 492 l 754 464 z "},"G":{"ha":2018,"x_min":13,"x_max":1878,"o":"m 1878 -3 l 13 -3 l 13 1863 l 1878 1863 l 1878 -3 m 1751 121 l 1751 1739 l 139 1739 l 139 121 l 1751 121 m 1465 783 q 1396 574 1465 668 q 1174 458 1311 458 q 1014 521 1081 458 q 885 835 885 643 q 1075 1267 885 1088 q 1408 1413 1231 1413 l 1447 1413 l 1447 1386 q 1306 1353 1361 1378 q 1190 1269 1250 1328 q 1038 988 1086 1165 q 1233 1054 1135 1054 q 1406 969 1340 1054 q 1465 783 1465 893 m 754 464 l 407 464 l 407 489 q 469 493 453 490 q 518 526 507 501 q 525 626 525 542 l 525 1124 q 518 1253 525 1221 q 471 1294 508 1294 q 400 1274 446 1294 l 390 1294 l 615 1403 l 638 1403 l 638 626 q 644 531 638 549 q 754 489 656 492 l 754 464 m 1344 710 q 1308 893 1344 815 q 1168 996 1261 996 q 1026 938 1118 996 q 1014 790 1014 847 q 1039 650 1014 721 q 1110 528 1065 569 q 1193 496 1143 496 q 1310 568 1268 496 q 1344 710 1344 629 z "},"H":{"ha":2018,"x_min":13,"x_max":1878,"o":"m 1878 -3 l 13 -3 l 13 1863 l 1878 1863 l 1878 -3 m 1751 121 l 1751 1739 l 139 1739 l 139 121 l 1751 121 m 1475 1378 l 1169 464 l 1093 464 l 1368 1293 l 1115 1293 q 1006 1275 1038 1293 q 914 1178 949 1243 l 894 1186 l 982 1404 l 1475 1404 l 1475 1378 m 754 464 l 407 464 l 407 489 q 469 493 453 490 q 518 526 507 501 q 525 626 525 542 l 525 1124 q 518 1253 525 1221 q 471 1294 508 1294 q 400 1274 446 1294 l 390 1294 l 615 1403 l 638 1403 l 638 626 q 644 531 638 549 q 754 489 656 492 l 754 464 z "},"I":{"ha":2018,"x_min":13,"x_max":1878,"o":"m 1878 -3 l 13 -3 l 13 1863 l 1878 1863 l 1878 -3 m 1751 121 l 1751 1739 l 139 1739 l 139 121 l 1751 121 m 1478 707 q 1396 533 1478 600 q 1210 472 1319 472 q 1004 554 1078 472 q 946 697 946 619 q 1129 951 946 821 q 1011 1061 1044 1019 q 956 1207 956 1131 q 1033 1369 956 1308 q 1210 1426 1106 1426 q 1376 1376 1304 1426 q 1457 1229 1457 1321 q 1393 1092 1457 1157 q 1268 997 1354 1051 q 1426 853 1388 906 q 1478 707 1478 783 m 754 464 l 407 464 l 407 489 q 469 493 453 490 q 518 526 507 501 q 525 626 525 542 l 525 1124 q 518 1253 525 1221 q 471 1294 508 1294 q 400 1274 446 1294 l 390 1294 l 615 1403 l 638 1403 l 638 626 q 644 531 638 549 q 754 489 656 492 l 754 464 m 1361 1236 q 1322 1348 1361 1307 q 1211 1389 1282 1389 q 1104 1353 1150 1389 q 1054 1254 1054 1314 q 1072 1185 1054 1219 q 1124 1117 1094 1140 l 1236 1024 q 1325 1117 1303 1083 q 1361 1236 1361 1168 m 1382 651 q 1356 738 1382 699 q 1161 925 1306 811 q 1050 701 1050 833 q 1126 538 1050 592 q 1219 510 1167 510 q 1334 548 1286 510 q 1382 651 1382 586 z "},"J":{"ha":2018,"x_min":13,"x_max":1878,"o":"m 1878 -3 l 13 -3 l 13 1863 l 1878 1863 l 1878 -3 m 1751 121 l 1751 1739 l 139 1739 l 139 121 l 1751 121 m 1486 1043 q 1410 756 1486 888 q 1201 538 1335 625 q 964 465 1092 465 l 925 465 l 925 490 q 1235 671 1108 493 q 1333 889 1306 771 q 1142 821 1228 821 q 968 906 1033 821 q 907 1094 907 983 q 976 1310 907 1215 q 1193 1424 1060 1424 q 1388 1331 1308 1424 q 1486 1043 1486 1215 m 754 464 l 407 464 l 407 489 q 469 493 453 490 q 518 526 507 501 q 525 626 525 542 l 525 1124 q 518 1253 525 1221 q 471 1294 508 1294 q 400 1274 446 1294 l 390 1294 l 615 1403 l 638 1403 l 638 626 q 644 531 638 549 q 754 489 656 492 l 754 464 m 1357 1079 q 1336 1217 1357 1147 q 1272 1339 1313 1299 q 1179 1379 1232 1379 q 1061 1307 1103 1379 q 1028 1164 1028 1247 q 1088 940 1028 1019 q 1196 882 1131 882 q 1344 939 1279 882 q 1357 1079 1357 1026 z "},"K":{"ha":2018,"x_min":13,"x_max":1878,"o":"m 1878 -3 l 13 -3 l 13 1863 l 1878 1863 l 1878 -3 m 1751 121 l 1751 1739 l 139 1739 l 139 121 l 1751 121 m 1551 953 q 1518 715 1551 824 q 1389 519 1475 581 q 1250 468 1317 468 q 1031 624 1118 468 q 957 939 957 754 q 1131 1378 957 1254 q 1257 1422 1193 1422 q 1446 1314 1361 1422 q 1551 953 1551 1179 m 875 654 l 811 475 l 268 475 l 268 500 q 540 772 457 672 q 703 1110 703 967 q 653 1251 703 1193 q 521 1310 603 1310 q 319 1156 372 1310 l 294 1156 q 374 1340 310 1271 q 557 1414 444 1414 q 739 1347 663 1414 q 819 1172 819 1276 q 624 800 819 1014 q 415 579 451 611 l 653 579 q 808 607 769 579 q 849 654 831 622 l 875 654 m 1418 983 q 1256 1378 1418 1378 q 1108 1160 1140 1378 q 1090 922 1090 1035 q 1138 613 1090 736 q 1251 511 1176 511 q 1342 560 1303 511 q 1388 654 1372 597 q 1418 983 1418 769 z "},"L":{"ha":2018,"x_min":13,"x_max":1878,"o":"m 1878 -3 l 13 -3 l 13 1863 l 1878 1863 l 1878 -3 m 1751 121 l 1751 1739 l 139 1739 l 139 121 l 1751 121 m 1444 464 l 1097 464 l 1097 489 q 1160 493 1143 490 q 1208 526 1197 501 q 1215 626 1215 542 l 1215 1124 q 1208 1253 1215 1221 q 1161 1294 1199 1294 q 1090 1274 1136 1294 l 1081 1294 l 1306 1403 l 1328 1403 l 1328 626 q 1335 531 1328 549 q 1444 489 1346 492 l 1444 464 m 933 654 l 869 475 l 326 475 l 326 500 q 599 772 515 672 q 761 1110 761 967 q 711 1251 761 1193 q 579 1310 661 1310 q 378 1156 431 1310 l 353 1156 q 432 1340 368 1271 q 615 1414 503 1414 q 797 1347 721 1414 q 878 1172 878 1276 q 682 800 878 1014 q 474 579 510 611 l 711 579 q 867 607 828 579 q 907 654 889 622 l 933 654 z "},"M":{"ha":2018,"x_min":13,"x_max":1878,"o":"m 1878 -3 l 13 -3 l 13 1863 l 1878 1863 l 1878 -3 m 1751 121 l 1751 1739 l 139 1739 l 139 121 l 1751 121 m 1588 654 l 1524 475 l 981 475 l 981 500 q 1253 772 1169 672 q 1415 1110 1415 967 q 1365 1251 1415 1193 q 1233 1310 1315 1310 q 1032 1156 1085 1310 l 1007 1156 q 1086 1340 1022 1271 q 1269 1414 1157 1414 q 1451 1347 1375 1414 q 1532 1172 1532 1276 q 1336 800 1532 1014 q 1128 579 1164 611 l 1365 579 q 1521 607 1482 579 q 1561 654 1543 622 l 1588 654 m 875 654 l 811 475 l 268 475 l 268 500 q 540 772 457 672 q 703 1110 703 967 q 653 1251 703 1193 q 521 1310 603 1310 q 319 1156 372 1310 l 294 1156 q 374 1340 310 1271 q 557 1414 444 1414 q 739 1347 663 1414 q 819 1172 819 1276 q 624 800 819 1014 q 415 579 451 611 l 653 579 q 808 607 769 579 q 849 654 831 622 l 875 654 z "},"N":{"ha":2018,"x_min":13,"x_max":1878,"o":"m 1878 -3 l 13 -3 l 13 1863 l 1878 1863 l 1878 -3 m 1751 121 l 1751 1739 l 139 1739 l 139 121 l 1751 121 m 1464 775 q 1388 568 1464 656 q 1100 454 1289 454 q 940 526 940 454 q 957 562 940 547 q 994 576 974 576 q 1028 571 1010 576 q 1083 545 1047 565 q 1138 519 1118 525 q 1192 513 1164 513 q 1313 567 1263 513 q 1364 693 1364 621 q 1347 782 1364 735 q 1301 856 1329 829 q 1117 926 1224 926 l 1096 926 l 1096 947 q 1203 986 1149 954 q 1282 1062 1258 1018 q 1306 1161 1306 1106 q 1263 1273 1306 1229 q 1153 1317 1221 1317 q 976 1203 1047 1317 l 954 1214 q 1203 1408 1036 1408 q 1374 1336 1314 1408 q 1418 1222 1418 1283 q 1292 1015 1418 1122 q 1464 775 1464 947 m 875 654 l 811 475 l 268 475 l 268 500 q 540 772 457 672 q 703 1110 703 967 q 653 1251 703 1193 q 521 1310 603 1310 q 319 1156 372 1310 l 294 1156 q 374 1340 310 1271 q 557 1414 444 1414 q 739 1347 663 1414 q 819 1172 819 1276 q 624 800 819 1014 q 415 579 451 611 l 653 579 q 808 607 769 579 q 849 654 831 622 l 875 654 z "},"O":{"ha":2018,"x_min":13,"x_max":1878,"o":"m 1878 -3 l 13 -3 l 13 1863 l 1878 1863 l 1878 -3 m 1751 121 l 1751 1739 l 139 1739 l 139 121 l 1751 121 m 1560 722 l 1436 722 l 1436 479 l 1324 479 l 1324 722 l 936 722 l 936 808 l 1361 1418 l 1436 1418 l 1436 818 l 1560 818 l 1560 722 m 875 654 l 811 475 l 268 475 l 268 500 q 540 772 457 672 q 703 1110 703 967 q 653 1251 703 1193 q 521 1310 603 1310 q 319 1156 372 1310 l 294 1156 q 374 1340 310 1271 q 557 1414 444 1414 q 739 1347 663 1414 q 819 1172 819 1276 q 624 800 819 1014 q 415 579 451 611 l 653 579 q 808 607 769 579 q 849 654 831 622 l 875 654 m 1324 818 l 1324 1275 l 1003 818 l 1324 818 z "},"P":{"ha":2018,"x_min":13,"x_max":1878,"o":"m 1878 -3 l 13 -3 l 13 1863 l 1878 1863 l 1878 -3 m 1751 121 l 1751 1739 l 139 1739 l 139 121 l 1751 121 m 1497 1404 l 1444 1289 l 1167 1289 l 1106 1165 q 1364 1058 1260 1143 q 1482 815 1482 961 q 1379 575 1482 674 q 1119 468 1267 468 q 1021 485 1063 468 q 961 557 961 508 q 1015 606 961 606 q 1093 572 1043 606 q 1194 538 1143 538 q 1336 599 1278 538 q 1394 744 1394 661 q 1335 908 1394 835 q 1193 1013 1282 975 q 992 1047 1121 1043 l 1168 1404 l 1497 1404 m 875 654 l 811 475 l 268 475 l 268 500 q 540 772 457 672 q 703 1110 703 967 q 653 1251 703 1193 q 521 1310 603 1310 q 319 1156 372 1310 l 294 1156 q 374 1340 310 1271 q 557 1414 444 1414 q 739 1347 663 1414 q 819 1172 819 1276 q 624 800 819 1014 q 415 579 451 611 l 653 579 q 808 607 769 579 q 849 654 831 622 l 875 654 z "},"Q":{"ha":2018,"x_min":13,"x_max":1878,"o":"m 1878 -3 l 13 -3 l 13 1863 l 1878 1863 l 1878 -3 m 1751 121 l 1751 1739 l 139 1739 l 139 121 l 1751 121 m 1533 783 q 1464 574 1533 668 q 1242 458 1379 458 q 1082 521 1149 458 q 953 835 953 643 q 1143 1267 953 1088 q 1476 1413 1299 1413 l 1515 1413 l 1515 1386 q 1374 1353 1429 1378 q 1258 1269 1318 1328 q 1106 988 1154 1165 q 1301 1054 1203 1054 q 1474 969 1408 1054 q 1533 783 1533 893 m 875 654 l 811 475 l 268 475 l 268 500 q 540 772 457 672 q 703 1110 703 967 q 653 1251 703 1193 q 521 1310 603 1310 q 319 1156 372 1310 l 294 1156 q 374 1340 310 1271 q 557 1414 444 1414 q 739 1347 663 1414 q 819 1172 819 1276 q 624 800 819 1014 q 415 579 451 611 l 653 579 q 808 607 769 579 q 849 654 831 622 l 875 654 m 1413 710 q 1376 893 1413 815 q 1236 996 1329 996 q 1094 938 1186 996 q 1082 790 1082 847 q 1107 650 1082 721 q 1178 528 1133 569 q 1261 496 1211 496 q 1378 568 1336 496 q 1413 710 1413 629 z "},"R":{"ha":2018,"x_min":13,"x_max":1878,"o":"m 1878 -3 l 13 -3 l 13 1863 l 1878 1863 l 1878 -3 m 1751 121 l 1751 1739 l 139 1739 l 139 121 l 1751 121 m 1519 1378 l 1214 464 l 1138 464 l 1413 1293 l 1160 1293 q 1050 1275 1082 1293 q 958 1178 993 1243 l 939 1186 l 1026 1404 l 1519 1404 l 1519 1378 m 875 654 l 811 475 l 268 475 l 268 500 q 540 772 457 672 q 703 1110 703 967 q 653 1251 703 1193 q 521 1310 603 1310 q 319 1156 372 1310 l 294 1156 q 374 1340 310 1271 q 557 1414 444 1414 q 739 1347 663 1414 q 819 1172 819 1276 q 624 800 819 1014 q 415 579 451 611 l 653 579 q 808 607 769 579 q 849 654 831 622 l 875 654 z "},"S":{"ha":2018,"x_min":13,"x_max":1878,"o":"m 1878 -3 l 13 -3 l 13 1863 l 1878 1863 l 1878 -3 m 1751 121 l 1751 1739 l 139 1739 l 139 121 l 1751 121 m 1478 707 q 1396 533 1478 600 q 1210 472 1319 472 q 1004 554 1078 472 q 946 697 946 619 q 1129 951 946 821 q 1011 1061 1044 1019 q 956 1207 956 1131 q 1033 1369 956 1308 q 1210 1426 1106 1426 q 1376 1376 1304 1426 q 1457 1229 1457 1321 q 1393 1092 1457 1157 q 1268 997 1354 1051 q 1426 853 1388 906 q 1478 707 1478 783 m 875 654 l 811 475 l 268 475 l 268 500 q 540 772 457 672 q 703 1110 703 967 q 653 1251 703 1193 q 521 1310 603 1310 q 319 1156 372 1310 l 294 1156 q 374 1340 310 1271 q 557 1414 444 1414 q 739 1347 663 1414 q 819 1172 819 1276 q 624 800 819 1014 q 415 579 451 611 l 653 579 q 808 607 769 579 q 849 654 831 622 l 875 654 m 1361 1236 q 1322 1348 1361 1307 q 1211 1389 1282 1389 q 1104 1353 1150 1389 q 1054 1254 1054 1314 q 1072 1185 1054 1219 q 1124 1117 1094 1140 l 1236 1024 q 1325 1117 1303 1083 q 1361 1236 1361 1168 m 1382 651 q 1356 738 1382 699 q 1161 925 1306 811 q 1050 701 1050 833 q 1126 538 1050 592 q 1219 510 1167 510 q 1334 548 1286 510 q 1382 651 1382 586 z "},"T":{"ha":2018,"x_min":13,"x_max":1878,"o":"m 1878 -3 l 13 -3 l 13 1863 l 1878 1863 l 1878 -3 m 1751 121 l 1751 1739 l 139 1739 l 139 121 l 1751 121 m 1560 1043 q 1484 756 1560 888 q 1275 538 1408 625 q 1038 465 1165 465 l 999 465 l 999 490 q 1308 671 1182 493 q 1407 889 1379 771 q 1215 821 1301 821 q 1042 906 1107 821 q 981 1094 981 983 q 1050 1310 981 1215 q 1267 1424 1133 1424 q 1461 1331 1382 1424 q 1560 1043 1560 1215 m 875 654 l 811 475 l 268 475 l 268 500 q 540 772 457 672 q 703 1110 703 967 q 653 1251 703 1193 q 521 1310 603 1310 q 319 1156 372 1310 l 294 1156 q 374 1340 310 1271 q 557 1414 444 1414 q 739 1347 663 1414 q 819 1172 819 1276 q 624 800 819 1014 q 415 579 451 611 l 653 579 q 808 607 769 579 q 849 654 831 622 l 875 654 m 1431 1079 q 1410 1217 1431 1147 q 1346 1339 1386 1299 q 1253 1379 1306 1379 q 1135 1307 1176 1379 q 1101 1164 1101 1247 q 1161 940 1101 1019 q 1269 882 1204 882 q 1418 939 1353 882 q 1431 1079 1431 1026 z "},"U":{"ha":2018,"x_min":13,"x_max":1878,"o":"m 1878 -3 l 13 -3 l 13 1863 l 1878 1863 l 1878 -3 m 1751 121 l 1751 1739 l 139 1739 l 139 121 l 1751 121 m 1551 953 q 1518 715 1551 824 q 1389 519 1475 581 q 1250 468 1317 468 q 1031 624 1118 468 q 957 939 957 754 q 1131 1378 957 1254 q 1257 1422 1193 1422 q 1446 1314 1361 1422 q 1551 953 1551 1179 m 1418 983 q 1256 1378 1418 1378 q 1108 1160 1140 1378 q 1090 922 1090 1035 q 1138 613 1090 736 q 1251 511 1176 511 q 1342 560 1303 511 q 1388 654 1372 597 q 1418 983 1418 769 m 826 775 q 750 568 826 656 q 463 454 651 454 q 303 526 303 454 q 319 562 303 547 q 357 576 336 576 q 391 571 372 576 q 445 545 410 565 q 500 519 481 525 q 554 513 526 513 q 676 567 625 513 q 726 693 726 621 q 709 782 726 735 q 664 856 692 829 q 479 926 586 926 l 458 926 l 458 947 q 566 986 511 954 q 644 1062 621 1018 q 668 1161 668 1106 q 626 1273 668 1229 q 515 1317 583 1317 q 339 1203 410 1317 l 317 1214 q 565 1408 399 1408 q 736 1336 676 1408 q 781 1222 781 1283 q 654 1015 781 1122 q 826 775 826 947 z "},"V":{"ha":2018,"x_min":13,"x_max":1878,"o":"m 1878 -3 l 13 -3 l 13 1863 l 1878 1863 l 1878 -3 m 1751 121 l 1751 1739 l 139 1739 l 139 121 l 1751 121 m 1444 464 l 1097 464 l 1097 489 q 1160 493 1143 490 q 1208 526 1197 501 q 1215 626 1215 542 l 1215 1124 q 1208 1253 1215 1221 q 1161 1294 1199 1294 q 1090 1274 1136 1294 l 1081 1294 l 1306 1403 l 1328 1403 l 1328 626 q 1335 531 1328 549 q 1444 489 1346 492 l 1444 464 m 840 775 q 764 568 840 656 q 476 454 665 454 q 317 526 317 454 q 333 562 317 547 q 371 576 350 576 q 405 571 386 576 q 459 545 424 565 q 514 519 494 525 q 568 513 540 513 q 690 567 639 513 q 740 693 740 621 q 723 782 740 735 q 678 856 706 829 q 493 926 600 926 l 472 926 l 472 947 q 580 986 525 954 q 658 1062 635 1018 q 682 1161 682 1106 q 640 1273 682 1229 q 529 1317 597 1317 q 353 1203 424 1317 l 331 1214 q 579 1408 413 1408 q 750 1336 690 1408 q 794 1222 794 1283 q 668 1015 794 1122 q 840 775 840 947 z "},"W":{"ha":2018,"x_min":13,"x_max":1878,"o":"m 1878 -3 l 13 -3 l 13 1863 l 1878 1863 l 1878 -3 m 1751 121 l 1751 1739 l 139 1739 l 139 121 l 1751 121 m 1588 654 l 1524 475 l 981 475 l 981 500 q 1253 772 1169 672 q 1415 1110 1415 967 q 1365 1251 1415 1193 q 1233 1310 1315 1310 q 1032 1156 1085 1310 l 1007 1156 q 1086 1340 1022 1271 q 1269 1414 1157 1414 q 1451 1347 1375 1414 q 1532 1172 1532 1276 q 1336 800 1532 1014 q 1128 579 1164 611 l 1365 579 q 1521 607 1482 579 q 1561 654 1543 622 l 1588 654 m 840 775 q 764 568 840 656 q 476 454 665 454 q 317 526 317 454 q 333 562 317 547 q 371 576 350 576 q 405 571 386 576 q 459 545 424 565 q 514 519 494 525 q 568 513 540 513 q 690 567 639 513 q 740 693 740 621 q 723 782 740 735 q 678 856 706 829 q 493 926 600 926 l 472 926 l 472 947 q 580 986 525 954 q 658 1062 635 1018 q 682 1161 682 1106 q 640 1273 682 1229 q 529 1317 597 1317 q 353 1203 424 1317 l 331 1214 q 579 1408 413 1408 q 750 1336 690 1408 q 794 1222 794 1283 q 668 1015 794 1122 q 840 775 840 947 z "},"X":{"ha":2018,"x_min":13,"x_max":1878,"o":"m 1878 -3 l 13 -3 l 13 1863 l 1878 1863 l 1878 -3 m 1751 121 l 1751 1739 l 139 1739 l 139 121 l 1751 121 m 1464 775 q 1388 568 1464 656 q 1100 454 1289 454 q 940 526 940 454 q 957 562 940 547 q 994 576 974 576 q 1028 571 1010 576 q 1083 545 1047 565 q 1138 519 1118 525 q 1192 513 1164 513 q 1313 567 1263 513 q 1364 693 1364 621 q 1347 782 1364 735 q 1301 856 1329 829 q 1117 926 1224 926 l 1096 926 l 1096 947 q 1203 986 1149 954 q 1282 1062 1258 1018 q 1306 1161 1306 1106 q 1263 1273 1306 1229 q 1153 1317 1221 1317 q 976 1203 1047 1317 l 954 1214 q 1203 1408 1036 1408 q 1374 1336 1314 1408 q 1418 1222 1418 1283 q 1292 1015 1418 1122 q 1464 775 1464 947 m 840 775 q 764 568 840 656 q 476 454 665 454 q 317 526 317 454 q 333 562 317 547 q 371 576 350 576 q 405 571 386 576 q 459 545 424 565 q 514 519 494 525 q 568 513 540 513 q 690 567 639 513 q 740 693 740 621 q 723 782 740 735 q 678 856 706 829 q 493 926 600 926 l 472 926 l 472 947 q 580 986 525 954 q 658 1062 635 1018 q 682 1161 682 1106 q 640 1273 682 1229 q 529 1317 597 1317 q 353 1203 424 1317 l 331 1214 q 579 1408 413 1408 q 750 1336 690 1408 q 794 1222 794 1283 q 668 1015 794 1122 q 840 775 840 947 z "},"Y":{"ha":2018,"x_min":13,"x_max":1878,"o":"m 1878 -3 l 13 -3 l 13 1863 l 1878 1863 l 1878 -3 m 1751 121 l 1751 1739 l 139 1739 l 139 121 l 1751 121 m 1560 722 l 1436 722 l 1436 479 l 1324 479 l 1324 722 l 936 722 l 936 808 l 1361 1418 l 1436 1418 l 1436 818 l 1560 818 l 1560 722 m 1324 818 l 1324 1275 l 1003 818 l 1324 818 m 840 775 q 764 568 840 656 q 476 454 665 454 q 317 526 317 454 q 333 562 317 547 q 371 576 350 576 q 405 571 386 576 q 459 545 424 565 q 514 519 494 525 q 568 513 540 513 q 690 567 639 513 q 740 693 740 621 q 723 782 740 735 q 678 856 706 829 q 493 926 600 926 l 472 926 l 472 947 q 580 986 525 954 q 658 1062 635 1018 q 682 1161 682 1106 q 640 1273 682 1229 q 529 1317 597 1317 q 353 1203 424 1317 l 331 1214 q 579 1408 413 1408 q 750 1336 690 1408 q 794 1222 794 1283 q 668 1015 794 1122 q 840 775 840 947 z "},"Z":{"ha":2018,"x_min":13,"x_max":1878,"o":"m 1878 -3 l 13 -3 l 13 1863 l 1878 1863 l 1878 -3 m 1751 121 l 1751 1739 l 139 1739 l 139 121 l 1751 121 m 1497 1404 l 1444 1289 l 1167 1289 l 1106 1165 q 1364 1058 1260 1143 q 1482 815 1482 961 q 1379 575 1482 674 q 1119 468 1267 468 q 1021 485 1063 468 q 961 557 961 508 q 1015 606 961 606 q 1093 572 1043 606 q 1194 538 1143 538 q 1336 599 1278 538 q 1394 744 1394 661 q 1335 908 1394 835 q 1193 1013 1282 975 q 992 1047 1121 1043 l 1168 1404 l 1497 1404 m 840 775 q 764 568 840 656 q 476 454 665 454 q 317 526 317 454 q 333 562 317 547 q 371 576 350 576 q 405 571 386 576 q 459 545 424 565 q 514 519 494 525 q 568 513 540 513 q 690 567 639 513 q 740 693 740 621 q 723 782 740 735 q 678 856 706 829 q 493 926 600 926 l 472 926 l 472 947 q 580 986 525 954 q 658 1062 635 1018 q 682 1161 682 1106 q 640 1273 682 1229 q 529 1317 597 1317 q 353 1203 424 1317 l 331 1214 q 579 1408 413 1408 q 750 1336 690 1408 q 794 1222 794 1283 q 668 1015 794 1122 q 840 775 840 947 z "},"[":{"ha":711,"x_min":0,"x_max":0,"o":""},"\\":{"ha":711,"x_min":0,"x_max":0,"o":""},"]":{"ha":711,"x_min":0,"x_max":0,"o":""},"^":{"ha":711,"x_min":0,"x_max":0,"o":""},"_":{"ha":711,"x_min":0,"x_max":0,"o":""},"`":{"ha":711,"x_min":0,"x_max":0,"o":""},"a":{"ha":1736,"x_min":13,"x_max":1878,"o":"m 1878 -3 l 13 -3 l 13 1863 l 1878 1863 l 1878 -3 m 1751 121 l 1751 1739 l 139 1739 l 139 121 l 1751 121 m 1390 433 l 1240 433 l 1125 735 l 707 735 l 599 433 l 458 433 l 840 1428 l 985 1428 l 1390 433 m 1085 842 l 981 1117 q 910 1325 935 1236 q 854 1133 888 1224 l 746 842 l 1085 842 z "},"b":{"ha":1022,"x_min":0,"x_max":0,"o":""},"c":{"ha":1044,"x_min":0,"x_max":0,"o":""},"d":{"ha":1736,"x_min":13,"x_max":1878,"o":"m 1878 -3 l 13 -3 l 13 1863 l 1878 1863 l 1878 -3 m 1751 121 l 1751 1739 l 139 1739 l 139 121 l 1751 121 m 1363 936 q 1268 590 1363 719 q 1058 450 1189 481 q 899 433 989 433 l 540 433 l 540 1428 l 883 1428 q 1060 1414 999 1428 q 1206 1342 1143 1394 q 1363 936 1363 1208 m 1226 938 q 1051 1290 1226 1222 q 881 1311 997 1311 l 672 1311 l 672 550 l 885 550 q 1128 619 1060 550 q 1226 938 1226 719 z "},"e":{"ha":2018,"x_min":13,"x_max":1878,"o":"m 1878 -3 l 13 -3 l 13 1863 l 1878 1863 l 1878 -3 m 1751 121 l 1751 1739 l 139 1739 l 139 121 l 1751 121 m 1035 449 l 904 449 l 904 1142 l 676 1142 l 676 1239 q 854 1278 804 1247 q 939 1425 913 1314 l 1035 1425 l 1035 449 z "},"f":{"ha":2018,"x_min":13,"x_max":1878,"o":"m 1878 -3 l 13 -3 l 13 1863 l 1878 1863 l 1878 -3 m 1751 121 l 1751 1739 l 139 1739 l 139 121 l 1751 121 m 1215 465 l 547 465 q 776 853 557 725 l 913 932 q 1036 1018 1008 990 q 1085 1156 1085 1071 q 1028 1288 1085 1239 q 892 1332 975 1332 q 729 1244 772 1332 q 704 1171 710 1207 q 694 1094 694 1117 l 694 1092 l 572 1092 q 697 1382 572 1299 q 910 1442 785 1442 q 1129 1360 1043 1442 q 1215 1150 1215 1279 q 1142 953 1215 1032 q 954 824 1092 899 l 853 768 q 685 581 699 683 l 1215 581 l 1215 465 z "},"g":{"ha":2018,"x_min":13,"x_max":1878,"o":"m 1878 -3 l 13 -3 l 13 1863 l 1878 1863 l 1878 -3 m 1751 121 l 1751 1739 l 139 1739 l 139 121 l 1751 121 m 1268 739 q 1217 563 1268 639 q 1075 451 1167 486 q 917 425 1007 425 q 750 461 824 425 q 631 579 665 501 q 590 750 597 651 l 717 750 q 739 635 721 675 q 819 554 763 581 q 925 535 861 535 q 1076 585 1015 535 q 1138 724 1138 635 q 1058 874 1138 832 q 910 903 1003 903 l 882 903 q 854 901 867 901 l 854 1007 q 918 1004 896 1004 q 1104 1164 1104 1004 q 1050 1282 1104 1240 q 924 1318 1001 1318 q 768 1243 811 1318 q 733 1108 739 1196 l 614 1108 q 697 1346 614 1264 q 929 1428 779 1428 q 1139 1364 1057 1428 q 1231 1171 1231 1294 q 1200 1049 1231 1101 q 1106 969 1167 989 l 1106 967 q 1268 739 1268 914 z "},"h":{"ha":2018,"x_min":13,"x_max":1878,"o":"m 1878 -3 l 13 -3 l 13 1863 l 1878 1863 l 1878 -3 m 1751 121 l 1751 1739 l 139 1739 l 139 121 l 1751 121 z "},"i":{"ha":2018,"x_min":13,"x_max":1878,"o":"m 1878 -3 l 13 -3 l 13 1863 l 1878 1863 l 1878 -3 m 1751 121 l 1751 1739 l 139 1739 l 139 121 l 1751 121 m 1218 679 l 1075 679 l 1075 442 l 953 442 l 953 679 l 526 679 l 526 799 l 974 1418 l 1075 1418 l 1075 785 l 1218 785 l 1218 679 m 953 785 l 953 1228 l 950 1228 l 639 785 l 953 785 z "},"j":{"ha":2018,"x_min":13,"x_max":1878,"o":"m 1878 -3 l 13 -3 l 13 1863 l 1878 1863 l 1878 -3 m 1751 121 l 1751 1739 l 139 1739 l 139 121 l 1751 121 m 1254 771 q 1157 518 1254 608 q 900 428 1060 428 q 681 497 764 428 q 585 697 599 567 l 711 697 q 918 533 731 533 q 1069 599 1011 533 q 1124 757 1124 663 q 1065 915 1124 856 q 907 974 1006 974 q 726 881 799 974 l 621 886 l 694 1410 l 1200 1410 l 1200 1290 l 786 1290 l 744 1022 q 933 1083 824 1083 q 1109 1035 1028 1083 q 1228 903 1190 986 q 1254 771 1254 844 z "},"k":{"ha":2018,"x_min":13,"x_max":1878,"o":"m 1878 -3 l 13 -3 l 13 1863 l 1878 1863 l 1878 -3 m 1751 121 l 1751 1739 l 139 1739 l 139 121 l 1751 121 m 1251 771 q 1158 526 1251 628 q 911 432 1072 432 q 769 470 836 432 q 660 574 701 508 q 585 913 585 692 q 660 1260 585 1117 q 946 1435 751 1435 q 1145 1364 1067 1435 q 1231 1175 1224 1293 l 1111 1175 q 943 1325 1085 1325 q 788 1242 849 1325 q 722 1071 740 1175 q 711 964 711 1011 l 714 961 q 946 1081 783 1081 q 1147 1011 1058 1081 q 1251 771 1251 928 m 1125 765 q 1072 915 1125 858 q 928 971 1018 971 q 781 912 835 971 q 728 758 728 853 q 843 561 728 617 q 933 542 882 542 q 1078 608 1025 542 q 1125 765 1125 671 z "},"l":{"ha":2018,"x_min":13,"x_max":1878,"o":"m 1878 -3 l 13 -3 l 13 1863 l 1878 1863 l 1878 -3 m 1751 121 l 1751 1739 l 139 1739 l 139 121 l 1751 121 m 1257 1293 q 1040 983 1146 1175 q 856 444 904 735 l 721 444 q 863 881 746 640 q 1119 1281 975 1113 l 582 1281 l 582 1400 l 1257 1400 l 1257 1293 z "},"m":{"ha":2018,"x_min":13,"x_max":1878,"o":"m 1878 -3 l 13 -3 l 13 1863 l 1878 1863 l 1878 -3 m 1751 121 l 1751 1739 l 139 1739 l 139 121 l 1751 121 m 1254 747 q 1158 518 1254 601 q 924 439 1068 439 q 689 514 785 439 q 603 639 624 565 q 589 746 589 683 q 754 983 589 917 q 622 1174 622 1033 q 686 1350 622 1274 q 918 1442 763 1442 q 1149 1361 1067 1442 q 1219 1190 1219 1289 q 1175 1046 1219 1100 q 1094 985 1149 1013 q 1224 875 1183 949 q 1254 747 1254 818 m 1093 1186 q 999 1318 1093 1281 q 911 1332 963 1332 q 783 1282 824 1332 q 749 1179 749 1240 q 801 1069 749 1111 q 919 1029 850 1029 q 1043 1072 993 1029 q 1093 1186 1093 1114 m 1124 733 q 1069 874 1124 825 q 921 924 1014 924 q 779 878 835 924 q 719 743 719 828 q 779 597 719 649 q 928 549 835 549 q 1124 733 1124 549 z "},"n":{"ha":2018,"x_min":13,"x_max":1878,"o":"m 1878 -3 l 13 -3 l 13 1863 l 1878 1863 l 1878 -3 m 1751 121 l 1751 1739 l 139 1739 l 139 121 l 1751 121 m 1244 969 q 1189 643 1244 792 q 890 419 1106 419 q 663 511 739 419 q 600 681 600 586 l 722 681 q 888 521 735 521 q 1067 651 1007 521 q 1122 886 1103 732 l 1119 889 q 1025 800 1092 832 q 896 772 964 772 q 672 859 756 772 q 589 1088 589 946 q 635 1273 589 1190 q 769 1396 681 1356 q 903 1422 828 1422 q 1188 1263 1108 1422 q 1244 969 1244 1149 m 1101 1104 q 1050 1256 1101 1200 q 904 1313 999 1313 q 763 1246 814 1313 q 715 1093 715 1186 q 782 919 715 968 q 914 882 832 882 q 1083 992 1036 882 q 1101 1104 1101 1036 z "},"o":{"ha":2018,"x_min":13,"x_max":1878,"o":"m 1878 -3 l 13 -3 l 13 1863 l 1878 1863 l 1878 -3 m 1751 121 l 1751 1739 l 139 1739 l 139 121 l 1751 121 m 1522 942 q 1458 610 1522 742 q 1188 440 1375 440 q 918 610 1000 440 q 853 942 853 746 q 918 1275 853 1139 q 1188 1443 999 1443 q 1458 1275 1375 1443 q 1522 942 1522 1143 m 669 449 l 539 449 l 539 1142 l 311 1142 l 311 1239 q 489 1278 439 1247 q 574 1425 547 1314 l 669 1425 l 669 449 m 1392 942 q 1188 1333 1392 1333 q 983 942 983 1333 q 1188 550 983 550 q 1392 942 1392 550 z "},"p":{"ha":1578,"x_min":53,"x_max":1474,"o":"m 1474 746 q 1379 390 1474 561 q 1121 130 1289 226 q 764 33 953 33 q 405 129 574 33 q 144 392 236 225 q 53 746 53 560 q 147 1103 53 935 q 407 1362 239 1267 q 764 1457 575 1457 q 1121 1361 953 1457 q 1379 1103 1289 1265 q 1474 746 1474 933 m 1379 746 q 1294 1058 1379 911 q 1067 1283 1210 1206 q 764 1364 919 1364 q 454 1280 599 1364 q 227 1051 310 1196 q 144 746 144 907 q 228 436 144 579 q 456 210 311 293 q 764 128 601 128 q 1075 212 929 128 q 1299 439 1221 296 q 1379 746 1379 588 m 1093 885 q 803 647 1093 647 l 601 647 l 601 331 l 500 331 l 500 1111 l 794 1111 q 913 1101 874 1111 q 1071 992 1028 1085 q 1093 885 1093 943 m 988 883 q 899 1013 988 990 q 803 1019 871 1019 l 601 1019 l 601 738 l 804 738 q 945 776 903 738 q 988 883 988 814 z "},"q":{"ha":1539,"x_min":65,"x_max":1467,"o":"m 1467 729 q 1372 375 1467 540 q 1114 119 1276 210 q 765 26 947 26 q 414 122 579 26 q 158 379 249 217 q 65 729 65 547 q 162 1084 65 917 q 423 1341 258 1251 q 765 1431 588 1431 q 1111 1340 944 1431 q 1370 1084 1274 1251 q 1467 729 1467 917 m 1406 729 q 1318 1053 1406 901 q 1079 1287 1231 1204 q 765 1369 928 1369 q 445 1283 596 1369 q 213 1050 294 1196 q 126 729 126 897 q 213 407 126 558 q 449 172 299 256 q 765 88 599 88 q 1088 174 938 88 q 1322 411 1238 261 q 1406 729 1406 561 m 1135 931 q 1083 799 1135 858 q 915 711 1031 740 q 772 699 867 699 l 697 699 l 697 393 q 739 338 704 351 q 814 331 760 331 l 814 297 l 449 297 l 449 331 q 517 341 499 331 q 547 375 536 351 q 553 465 553 388 l 553 983 q 551 1071 553 1061 q 463 1117 535 1117 l 463 1154 l 842 1154 q 1040 1104 961 1154 q 1135 931 1135 1044 m 976 921 q 919 1058 976 1004 q 779 1111 863 1111 q 697 1094 742 1111 l 697 740 q 947 828 885 740 q 976 921 976 868 z "},"r":{"ha":2018,"x_min":13,"x_max":1878,"o":"m 1878 -3 l 13 -3 l 13 1863 l 1878 1863 l 1878 -3 m 1751 121 l 1751 1739 l 139 1739 l 139 121 l 1751 121 m 1339 449 l 1208 449 l 1208 1142 l 981 1142 l 981 1239 q 1158 1278 1108 1247 q 1243 1425 1217 1314 l 1339 1425 l 1339 449 m 708 449 l 578 449 l 578 1142 l 350 1142 l 350 1239 q 528 1278 478 1247 q 613 1425 586 1314 l 708 1425 l 708 449 z "},"s":{"ha":2018,"x_min":13,"x_max":1878,"o":"m 1878 -3 l 13 -3 l 13 1863 l 1878 1863 l 1878 -3 m 1751 121 l 1751 1739 l 139 1739 l 139 121 l 1751 121 m 1524 450 l 856 450 q 1085 838 865 710 l 1221 917 q 1344 1003 1317 975 q 1393 1140 1393 1056 q 1336 1272 1393 1224 q 1200 1317 1283 1317 q 1038 1229 1081 1317 q 1013 1156 1018 1192 q 1003 1079 1003 1101 l 1003 1076 l 881 1076 q 1006 1367 881 1283 q 1218 1426 1093 1426 q 1438 1345 1351 1426 q 1524 1135 1524 1264 q 1450 938 1524 1017 q 1263 808 1400 883 l 1161 753 q 993 565 1007 668 l 1524 565 l 1524 450 m 669 449 l 539 449 l 539 1142 l 311 1142 l 311 1239 q 489 1278 439 1247 q 574 1425 547 1314 l 669 1425 l 669 449 z "},"t":{"ha":2018,"x_min":13,"x_max":1878,"o":"m 1878 -3 l 13 -3 l 13 1863 l 1878 1863 l 1878 -3 m 1751 121 l 1751 1739 l 139 1739 l 139 121 l 1751 121 m 1506 746 q 1455 569 1506 646 q 1313 458 1404 493 q 1154 432 1244 432 q 988 468 1061 432 q 868 586 903 508 q 828 757 835 658 l 954 757 q 976 642 958 682 q 1057 561 1000 588 q 1163 542 1099 542 q 1314 592 1253 542 q 1375 731 1375 642 q 1296 881 1375 839 q 1147 910 1240 910 l 1119 910 q 1092 908 1104 908 l 1092 1014 q 1156 1011 1133 1011 q 1342 1171 1342 1011 q 1288 1289 1342 1247 q 1161 1325 1239 1325 q 1006 1250 1049 1325 q 971 1115 976 1203 l 851 1115 q 934 1353 851 1271 q 1167 1435 1017 1435 q 1376 1371 1294 1435 q 1468 1178 1468 1301 q 1438 1056 1468 1108 q 1343 976 1404 996 l 1343 974 q 1506 746 1506 921 m 669 449 l 539 449 l 539 1142 l 311 1142 l 311 1239 q 489 1278 439 1247 q 574 1425 547 1314 l 669 1425 l 669 449 z "},"u":{"ha":2018,"x_min":13,"x_max":1878,"o":"m 1878 -3 l 13 -3 l 13 1863 l 1878 1863 l 1878 -3 m 1751 121 l 1751 1739 l 139 1739 l 139 121 l 1751 121 m 1494 688 l 1351 688 l 1351 450 l 1229 450 l 1229 688 l 803 688 l 803 807 l 1250 1426 l 1351 1426 l 1351 793 l 1494 793 l 1494 688 m 669 449 l 539 449 l 539 1142 l 311 1142 l 311 1239 q 489 1278 439 1247 q 574 1425 547 1314 l 669 1425 l 669 449 m 1229 793 l 1229 1236 l 1226 1236 l 915 793 l 1229 793 z "},"v":{"ha":2018,"x_min":13,"x_max":1878,"o":"m 1878 -3 l 13 -3 l 13 1863 l 1878 1863 l 1878 -3 m 1751 121 l 1751 1739 l 139 1739 l 139 121 l 1751 121 m 1492 788 q 1394 535 1492 625 q 1138 444 1297 444 q 919 514 1001 444 q 822 714 836 583 l 949 714 q 1156 550 968 550 q 1307 615 1249 550 q 1361 774 1361 679 q 1302 931 1361 872 q 1144 990 1243 990 q 964 897 1036 990 l 858 903 l 932 1426 l 1438 1426 l 1438 1307 l 1024 1307 l 982 1039 q 1171 1100 1061 1100 q 1347 1051 1265 1100 q 1465 919 1428 1003 q 1492 788 1492 861 m 669 449 l 539 449 l 539 1142 l 311 1142 l 311 1239 q 489 1278 439 1247 q 574 1425 547 1314 l 669 1425 l 669 449 z "},"w":{"ha":2018,"x_min":13,"x_max":1878,"o":"m 1878 -3 l 13 -3 l 13 1863 l 1878 1863 l 1878 -3 m 1751 121 l 1751 1739 l 139 1739 l 139 121 l 1751 121 m 1524 771 q 1431 526 1524 628 q 1183 432 1344 432 q 1041 470 1108 432 q 932 574 974 508 q 857 913 857 692 q 932 1260 857 1117 q 1218 1435 1024 1435 q 1417 1364 1339 1435 q 1503 1175 1496 1293 l 1383 1175 q 1215 1325 1357 1325 q 1060 1242 1121 1325 q 994 1071 1013 1175 q 983 964 983 1011 l 986 961 q 1218 1081 1056 1081 q 1419 1011 1331 1081 q 1524 771 1524 928 m 669 449 l 539 449 l 539 1142 l 311 1142 l 311 1239 q 489 1278 439 1247 q 574 1425 547 1314 l 669 1425 l 669 449 m 1397 765 q 1344 915 1397 858 q 1200 971 1290 971 q 1053 912 1107 971 q 1000 758 1000 853 q 1115 561 1000 617 q 1206 542 1154 542 q 1350 608 1297 542 q 1397 765 1397 671 z "},"x":{"ha":2018,"x_min":13,"x_max":1878,"o":"m 1878 -3 l 13 -3 l 13 1863 l 1878 1863 l 1878 -3 m 1751 121 l 1751 1739 l 139 1739 l 139 121 l 1751 121 m 1568 1303 q 1351 993 1457 1185 q 1167 454 1215 744 l 1032 454 q 1174 890 1057 650 q 1431 1290 1286 1122 l 893 1290 l 893 1410 l 1568 1410 l 1568 1303 m 669 449 l 539 449 l 539 1142 l 311 1142 l 311 1239 q 489 1278 439 1247 q 574 1425 547 1314 l 669 1425 l 669 449 z "},"y":{"ha":2018,"x_min":13,"x_max":1878,"o":"m 1878 -3 l 13 -3 l 13 1863 l 1878 1863 l 1878 -3 m 1751 121 l 1751 1739 l 139 1739 l 139 121 l 1751 121 m 1535 747 q 1439 518 1535 601 q 1204 439 1349 439 q 969 514 1065 439 q 883 639 904 565 q 869 746 869 683 q 1035 983 869 917 q 903 1174 903 1033 q 967 1350 903 1274 q 1199 1442 1043 1442 q 1429 1361 1347 1442 q 1500 1190 1500 1289 q 1456 1046 1500 1100 q 1375 985 1429 1013 q 1504 875 1464 949 q 1535 747 1535 818 m 669 449 l 539 449 l 539 1142 l 311 1142 l 311 1239 q 489 1278 439 1247 q 574 1425 547 1314 l 669 1425 l 669 449 m 1374 1186 q 1279 1318 1374 1281 q 1192 1332 1243 1332 q 1064 1282 1104 1332 q 1029 1179 1029 1240 q 1082 1069 1029 1111 q 1200 1029 1131 1029 q 1324 1072 1274 1029 q 1374 1186 1374 1114 m 1404 733 q 1349 874 1404 825 q 1201 924 1294 924 q 1060 878 1115 924 q 1000 743 1000 828 q 1060 597 1000 649 q 1208 549 1115 549 q 1404 733 1404 549 z "},"z":{"ha":2018,"x_min":13,"x_max":1878,"o":"m 1878 -3 l 13 -3 l 13 1863 l 1878 1863 l 1878 -3 m 1751 121 l 1751 1739 l 139 1739 l 139 121 l 1751 121 m 1532 986 q 1476 660 1532 808 q 1178 436 1393 436 q 950 528 1026 436 q 888 697 888 603 l 1010 697 q 1175 538 1022 538 q 1354 668 1294 538 q 1410 903 1390 749 l 1407 906 q 1313 817 1379 849 q 1183 789 1251 789 q 960 876 1043 789 q 876 1104 876 963 q 922 1290 876 1207 q 1057 1413 968 1372 q 1190 1439 1115 1439 q 1475 1279 1396 1439 q 1532 986 1532 1165 m 669 449 l 539 449 l 539 1142 l 311 1142 l 311 1239 q 489 1278 439 1247 q 574 1425 547 1314 l 669 1425 l 669 449 m 1389 1121 q 1338 1273 1389 1217 q 1192 1329 1286 1329 q 1050 1263 1101 1329 q 1003 1110 1003 1203 q 1069 936 1003 985 q 1201 899 1119 899 q 1371 1008 1324 899 q 1389 1121 1389 1053 z "},"{":{"ha":711,"x_min":0,"x_max":0,"o":""},"|":{"ha":711,"x_min":0,"x_max":0,"o":""},"~":{"ha":715,"x_min":0,"x_max":0,"o":""},"Ä":{"ha":918,"x_min":0,"x_max":0,"o":""},"Å":{"ha":918,"x_min":0,"x_max":0,"o":""},"Ç":{"ha":853,"x_min":0,"x_max":0,"o":""},"É":{"ha":721,"x_min":0,"x_max":0,"o":""},"Ñ":{"ha":983,"x_min":0,"x_max":0,"o":""},"Ö":{"ha":983,"x_min":0,"x_max":0,"o":""},"Ü":{"ha":918,"x_min":0,"x_max":0,"o":""},"á":{"ha":590,"x_min":0,"x_max":0,"o":""},"à":{"ha":590,"x_min":0,"x_max":0,"o":""},"â":{"ha":590,"x_min":0,"x_max":0,"o":""},"ä":{"ha":590,"x_min":0,"x_max":0,"o":""},"ã":{"ha":590,"x_min":0,"x_max":0,"o":""},"å":{"ha":590,"x_min":0,"x_max":0,"o":""},"ç":{"ha":524,"x_min":0,"x_max":0,"o":""},"é":{"ha":590,"x_min":0,"x_max":0,"o":""},"è":{"ha":590,"x_min":0,"x_max":0,"o":""},"ê":{"ha":590,"x_min":0,"x_max":0,"o":""},"ë":{"ha":590,"x_min":0,"x_max":0,"o":""},"í":{"ha":393,"x_min":0,"x_max":0,"o":""},"ì":{"ha":393,"x_min":0,"x_max":0,"o":""},"î":{"ha":393,"x_min":0,"x_max":0,"o":""},"ï":{"ha":393,"x_min":0,"x_max":0,"o":""},"ñ":{"ha":721,"x_min":0,"x_max":0,"o":""},"ó":{"ha":657,"x_min":0,"x_max":0,"o":""},"ò":{"ha":657,"x_min":0,"x_max":0,"o":""},"ô":{"ha":657,"x_min":0,"x_max":0,"o":""},"ö":{"ha":657,"x_min":0,"x_max":0,"o":""},"õ":{"ha":657,"x_min":0,"x_max":0,"o":""},"ú":{"ha":721,"x_min":0,"x_max":0,"o":""},"ù":{"ha":721,"x_min":0,"x_max":0,"o":""},"û":{"ha":721,"x_min":0,"x_max":0,"o":""},"ü":{"ha":721,"x_min":0,"x_max":0,"o":""},"†":{"ha":772,"x_min":0,"x_max":0,"o":""},"°":{"ha":472,"x_min":0,"x_max":0,"o":""},"¢":{"ha":772,"x_min":0,"x_max":0,"o":""},"£":{"ha":772,"x_min":0,"x_max":0,"o":""},"§":{"ha":772,"x_min":0,"x_max":0,"o":""},"•":{"ha":711,"x_min":0,"x_max":0,"o":""},"¶":{"ha":757,"x_min":0,"x_max":0,"o":""},"ß":{"ha":721,"x_min":0,"x_max":0,"o":""},"®":{"ha":882,"x_min":0,"x_max":0,"o":""},"©":{"ha":882,"x_min":0,"x_max":0,"o":""},"™":{"ha":1125,"x_min":0,"x_max":0,"o":""},"´":{"ha":393,"x_min":0,"x_max":0,"o":""},"¨":{"ha":393,"x_min":0,"x_max":0,"o":""},"Æ":{"ha":1181,"x_min":0,"x_max":0,"o":""},"Ø":{"ha":983,"x_min":0,"x_max":0,"o":""},"±":{"ha":763,"x_min":0,"x_max":0,"o":""},"¥":{"ha":772,"x_min":0,"x_max":0,"o":""},"µ":{"ha":721,"x_min":0,"x_max":0,"o":""},"μ":{"ha":721,"x_min":0,"x_max":0,"o":""},"ª":{"ha":517,"x_min":0,"x_max":0,"o":""},"º":{"ha":576,"x_min":0,"x_max":0,"o":""},"æ":{"ha":918,"x_min":0,"x_max":0,"o":""},"ø":{"ha":657,"x_min":0,"x_max":0,"o":""},"¿":{"ha":524,"x_min":0,"x_max":0,"o":""},"¡":{"ha":463,"x_min":0,"x_max":0,"o":""},"¬":{"ha":811,"x_min":0,"x_max":0,"o":""},"ƒ":{"ha":711,"x_min":0,"x_max":0,"o":""},"«":{"ha":590,"x_min":0,"x_max":0,"o":""},"»":{"ha":590,"x_min":0,"x_max":0,"o":""},"…":{"ha":1125,"x_min":0,"x_max":0,"o":""}," ":{"ha":386,"x_min":0,"x_max":0,"o":""},"À":{"ha":918,"x_min":0,"x_max":0,"o":""},"Ã":{"ha":918,"x_min":0,"x_max":0,"o":""},"Õ":{"ha":983,"x_min":0,"x_max":0,"o":""},"Œ":{"ha":1125,"x_min":0,"x_max":0,"o":""},"œ":{"ha":1311,"x_min":0,"x_max":0,"o":""},"–":{"ha":711,"x_min":0,"x_max":0,"o":""},"—":{"ha":711,"x_min":0,"x_max":0,"o":""},"“":{"ha":933,"x_min":0,"x_max":0,"o":""},"”":{"ha":933,"x_min":0,"x_max":0,"o":""},"‘":{"ha":563,"x_min":0,"x_max":0,"o":""},"’":{"ha":528,"x_min":0,"x_max":0,"o":""},"÷":{"ha":763,"x_min":0,"x_max":0,"o":""},"ÿ":{"ha":657,"x_min":0,"x_max":0,"o":""},"Ÿ":{"ha":1125,"x_min":0,"x_max":0,"o":""},"¤":{"ha":772,"x_min":0,"x_max":0,"o":""},"‹":{"ha":1125,"x_min":0,"x_max":0,"o":""},"›":{"ha":1125,"x_min":0,"x_max":0,"o":""},"‡":{"ha":772,"x_min":0,"x_max":0,"o":""},"·":{"ha":296,"x_min":0,"x_max":0,"o":""},"∙":{"ha":296,"x_min":0,"x_max":0,"o":""},"‚":{"ha":521,"x_min":0,"x_max":0,"o":""},"„":{"ha":933,"x_min":0,"x_max":0,"o":""},"‰":{"ha":1125,"x_min":0,"x_max":0,"o":""},"Â":{"ha":918,"x_min":0,"x_max":0,"o":""},"Ê":{"ha":721,"x_min":0,"x_max":0,"o":""},"Á":{"ha":918,"x_min":0,"x_max":0,"o":""},"Ë":{"ha":721,"x_min":0,"x_max":0,"o":""},"È":{"ha":721,"x_min":0,"x_max":0,"o":""},"Í":{"ha":460,"x_min":0,"x_max":0,"o":""},"Î":{"ha":460,"x_min":0,"x_max":0,"o":""},"Ï":{"ha":460,"x_min":0,"x_max":0,"o":""},"Ì":{"ha":460,"x_min":0,"x_max":0,"o":""},"Ó":{"ha":983,"x_min":0,"x_max":0,"o":""},"Ô":{"ha":983,"x_min":0,"x_max":0,"o":""},"Ò":{"ha":983,"x_min":0,"x_max":0,"o":""},"Ú":{"ha":918,"x_min":0,"x_max":0,"o":""},"Û":{"ha":918,"x_min":0,"x_max":0,"o":""},"Ù":{"ha":918,"x_min":0,"x_max":0,"o":""},"ˆ":{"ha":1125,"x_min":0,"x_max":0,"o":""},"˜":{"ha":711,"x_min":0,"x_max":0,"o":""},"¯":{"ha":767,"x_min":0,"x_max":0,"o":""},"ˉ":{"ha":767,"x_min":0,"x_max":0,"o":""},"¸":{"ha":393,"x_min":0,"x_max":0,"o":""},"Š":{"ha":1125,"x_min":0,"x_max":0,"o":""},"š":{"ha":1125,"x_min":0,"x_max":0,"o":""},"¦":{"ha":715,"x_min":0,"x_max":0,"o":""},"Ð":{"ha":983,"x_min":0,"x_max":0,"o":""},"ð":{"ha":657,"x_min":0,"x_max":0,"o":""},"Ý":{"ha":788,"x_min":0,"x_max":0,"o":""},"ý":{"ha":657,"x_min":0,"x_max":0,"o":""},"Þ":{"ha":721,"x_min":0,"x_max":0,"o":""},"þ":{"ha":721,"x_min":0,"x_max":0,"o":""},"­":{"ha":463,"x_min":0,"x_max":0,"o":""},"−":{"ha":463,"x_min":0,"x_max":0,"o":""},"×":{"ha":715,"x_min":0,"x_max":0,"o":""},"¹":{"ha":393,"x_min":0,"x_max":0,"o":""},"²":{"ha":354,"x_min":0,"x_max":0,"o":""},"³":{"ha":354,"x_min":0,"x_max":0,"o":""},"½":{"ha":886,"x_min":0,"x_max":0,"o":""},"¼":{"ha":886,"x_min":0,"x_max":0,"o":""},"¾":{"ha":886,"x_min":0,"x_max":0,"o":""},"}":{"ha":1042,"x_min":0,"x_max":0,"o":""},"":{"ha":1042,"x_min":0,"x_max":0,"o":""},"":{"ha":1042,"x_min":0,"x_max":0,"o":""},"":{"ha":1042,"x_min":0,"x_max":0,"o":""},"":{"ha":1042,"x_min":0,"x_max":0,"o":""},"":{"ha":1042,"x_min":0,"x_max":0,"o":""},"":{"ha":1042,"x_min":0,"x_max":0,"o":""},"":{"ha":1042,"x_min":0,"x_max":0,"o":""},"":{"ha":1042,"x_min":0,"x_max":0,"o":""}}}
